{
  "accessors": [
    {
      "bufferView": 1,
      "componentType": 5126,
      "count": 996,
      "max": [
        0.10219831764698029,
        0.21398378908634186,
        0.40148228406906128
      ],
      "min": [
        -0.37056156992912292,
        -0.21398378908634186,
        -0.30011579394340515
      ],
      "type": "VEC3"
    },
    {
      "bufferView": 1,
      "byteOffset": 11952,
      "componentType": 5126,
      "count": 996,
      "max": [
        0.99843966960906982,
        0.99317705631256104,
        0.99120026826858521
      ],
      "min": [
        -0.99393117427825928,
        -0.99317705631256104,
        -0.91359728574752808
      ],
      "type": "VEC3"
    },
    {
      "bufferView": 2,
      "componentType": 5126,
      "count": 996,
      "max": [
        1,
        0,
        -0,
        1
      ],
      "min": [
        1,
        0,
        -0,
        1
      ],
      "type": "VEC4"
    },
    {
      "bufferView": 0,
      "componentType": 5125,
      "count": 438,
      "max": [
        313
      ],
      "min": [
        0
      ],
      "type": "SCALAR"
    },
    {
      "bufferView": 1,
      "byteOffset": 23904,
      "componentType": 5126,
      "count": 996,
      "max": [
        0.10219831764698029,
        0.21398378908634186,
        0.40148228406906128
      ],
      "min": [
        -0.37056156992912292,
        -0.21398378908634186,
        -0.30011579394340515
      ],
      "type": "VEC3"
    },
    {
      "bufferView": 1,
      "byteOffset": 35856,
      "componentType": 5126,
      "count": 996,
      "max": [
        0.99843966960906982,
        0.99317705631256104,
        0.99120026826858521
      ],
      "min": [
        -0.99393117427825928,
        -0.99317705631256104,
        -0.91359728574752808
      ],
      "type": "VEC3"
    },
    {
      "bufferView": 2,
      "byteOffset": 15936,
      "componentType": 5126,
      "count": 996,
      "max": [
        1,
        0,
        -0,
        1
      ],
      "min": [
        1,
        0,
        -0,
        1
      ],
      "type": "VEC4"
    },
    {
      "bufferView": 0,
      "byteOffset": 1752,
      "componentType": 5125,
      "count": 228,
      "max": [
        479
      ],
      "min": [
        314
      ],
      "type": "SCALAR"
    },
    {
      "bufferView": 1,
      "byteOffset": 47808,
      "componentType": 5126,
      "count": 996,
      "max": [
        0.10219831764698029,
        0.21398378908634186,
        0.40148228406906128
      ],
      "min": [
        -0.37056156992912292,
        -0.21398378908634186,
        -0.30011579394340515
      ],
      "type": "VEC3"
    },
    {
      "bufferView": 1,
      "byteOffset": 59760,
      "componentType": 5126,
      "count": 996,
      "max": [
        0.99843966960906982,
        0.99317705631256104,
        0.99120026826858521
      ],
      "min": [
        -0.99393117427825928,
        -0.99317705631256104,
        -0.91359728574752808
      ],
      "type": "VEC3"
    },
    {
      "bufferView": 2,
      "byteOffset": 31872,
      "componentType": 5126,
      "count": 996,
      "max": [
        1,
        0,
        -0,
        1
      ],
      "min": [
        1,
        0,
        -0,
        1
      ],
      "type": "VEC4"
    },
    {
      "bufferView": 0,
      "byteOffset": 2664,
      "componentType": 5125,
      "count": 42,
      "max": [
        517
      ],
      "min": [
        480
      ],
      "type": "SCALAR"
    },
    {
      "bufferView": 1,
      "byteOffset": 71712,
      "componentType": 5126,
      "count": 996,
      "max": [
        0.10219831764698029,
        0.21398378908634186,
        0.40148228406906128
      ],
      "min": [
        -0.37056156992912292,
        -0.21398378908634186,
        -0.30011579394340515
      ],
      "type": "VEC3"
    },
    {
      "bufferView": 1,
      "byteOffset": 83664,
      "componentType": 5126,
      "count": 996,
      "max": [
        0.99843966960906982,
        0.99317705631256104,
        0.99120026826858521
      ],
      "min": [
        -0.99393117427825928,
        -0.99317705631256104,
        -0.91359728574752808
      ],
      "type": "VEC3"
    },
    {
      "bufferView": 2,
      "byteOffset": 47808,
      "componentType": 5126,
      "count": 996,
      "max": [
        1,
        0,
        -0,
        1
      ],
      "min": [
        1,
        0,
        -0,
        1
      ],
      "type": "VEC4"
    },
    {
      "bufferView": 0,
      "byteOffset": 2832,
      "componentType": 5125,
      "count": 36,
      "max": [
        541
      ],
      "min": [
        518
      ],
      "type": "SCALAR"
    },
    {
      "bufferView": 1,
      "byteOffset": 95616,
      "componentType": 5126,
      "count": 996,
      "max": [
        0.10219831764698029,
        0.21398378908634186,
        0.40148228406906128
      ],
      "min": [
        -0.37056156992912292,
        -0.21398378908634186,
        -0.30011579394340515
      ],
      "type": "VEC3"
    },
    {
      "bufferView": 1,
      "byteOffset": 107568,
      "componentType": 5126,
      "count": 996,
      "max": [
        0.99843966960906982,
        0.99317705631256104,
        0.99120026826858521
      ],
      "min": [
        -0.99393117427825928,
        -0.99317705631256104,
        -0.91359728574752808
      ],
      "type": "VEC3"
    },
    {
      "bufferView": 2,
      "byteOffset": 63744,
      "componentType": 5126,
      "count": 996,
      "max": [
        1,
        0,
        -0,
        1
      ],
      "min": [
        1,
        0,
        -0,
        1
      ],
      "type": "VEC4"
    },
    {
      "bufferView": 0,
      "byteOffset": 2976,
      "componentType": 5125,
      "count": 216,
      "max": [
        689
      ],
      "min": [
        542
      ],
      "type": "SCALAR"
    },
    {
      "bufferView": 1,
      "byteOffset": 119520,
      "componentType": 5126,
      "count": 996,
      "max": [
        0.10219831764698029,
        0.21398378908634186,
        0.40148228406906128
      ],
      "min": [
        -0.37056156992912292,
        -0.21398378908634186,
        -0.30011579394340515
      ],
      "type": "VEC3"
    },
    {
      "bufferView": 1,
      "byteOffset": 131472,
      "componentType": 5126,
      "count": 996,
      "max": [
        0.99843966960906982,
        0.99317705631256104,
        0.99120026826858521
      ],
      "min": [
        -0.99393117427825928,
        -0.99317705631256104,
        -0.91359728574752808
      ],
      "type": "VEC3"
    },
    {
      "bufferView": 2,
      "byteOffset": 79680,
      "componentType": 5126,
      "count": 996,
      "max": [
        1,
        0,
        -0,
        1
      ],
      "min": [
        1,
        0,
        -0,
        1
      ],
      "type": "VEC4"
    },
    {
      "bufferView": 0,
      "byteOffset": 3840,
      "componentType": 5125,
      "count": 96,
      "max": [
        757
      ],
      "min": [
        79
      ],
      "type": "SCALAR"
    },
    {
      "bufferView": 1,
      "byteOffset": 143424,
      "componentType": 5126,
      "count": 996,
      "max": [
        0.10219831764698029,
        0.21398378908634186,
        0.40148228406906128
      ],
      "min": [
        -0.37056156992912292,
        -0.21398378908634186,
        -0.30011579394340515
      ],
      "type": "VEC3"
    },
    {
      "bufferView": 1,
      "byteOffset": 155376,
      "componentType": 5126,
      "count": 996,
      "max": [
        0.99843966960906982,
        0.99317705631256104,
        0.99120026826858521
      ],
      "min": [
        -0.99393117427825928,
        -0.99317705631256104,
        -0.91359728574752808
      ],
      "type": "VEC3"
    },
    {
      "bufferView": 2,
      "byteOffset": 95616,
      "componentType": 5126,
      "count": 996,
      "max": [
        1,
        0,
        -0,
        1
      ],
      "min": [
        1,
        0,
        -0,
        1
      ],
      "type": "VEC4"
    },
    {
      "bufferView": 0,
      "byteOffset": 4224,
      "componentType": 5125,
      "count": 330,
      "max": [
        995
      ],
      "min": [
        758
      ],
      "type": "SCALAR"
    }
  ],
  "asset": {
    "extras": {
      "author": "blujay (https://sketchfab.com/blujay)",
      "license": "CC-BY-NC-4.0 (http://creativecommons.org/licenses/by-nc/4.0/)",
      "source": "https://sketchfab.com/models/0098586123fc435f86c7f5cb3d3b8a79",
      "title": "chicken"
    },
    "generator": "Sketchfab-3.18.7",
    "version": "2.0"
  },
  "bufferViews": [
    {
      "buffer": 0,
      "byteLength": 5544,
      "byteOffset": 0,
      "name": "floatBufferViews",
      "target": 34963
    },
    {
      "buffer": 0,
      "byteLength": 167328,
      "byteOffset": 5544,
      "byteStride": 12,
      "name": "floatBufferViews",
      "target": 34962
    },
    {
      "buffer": 0,
      "byteLength": 111552,
      "byteOffset": 172872,
      "byteStride": 16,
      "name": "floatBufferViews",
      "target": 34962
    }
  ],
  "buffers": [
    {
      "byteLength": 284424,
      "uri": "scene.bin"
    }
  ],
  "materials": [
    {
      "doubleSided": false,
      "emissiveFactor": [
        0,
        0,
        0
      ],
      "name": "white",
      "pbrMetallicRoughness": {
        "baseColorFactor": [
          1,
          1,
          1,
          1
        ],
        "metallicFactor": 0,
        "roughnessFactor": 0.5
      }
    },
    {
      "doubleSided": false,
      "emissiveFactor": [
        0,
        0,
        0
      ],
      "name": "pale_red",
      "pbrMetallicRoughness": {
        "baseColorFactor": [
          0.80000000000000004,
          0.062774999999999997,
          0.065418100000000007,
          1
        ],
        "metallicFactor": 0,
        "roughnessFactor": 0.5
      }
    },
    {
      "doubleSided": false,
      "emissiveFactor": [
        0,
        0,
        0
      ],
      "name": "gold",
      "pbrMetallicRoughness": {
        "baseColorFactor": [
          0.80000000000000004,
          0.26293499999999997,
          0.020781000000000001,
          1
        ],
        "metallicFactor": 0,
        "roughnessFactor": 0.5
      }
    },
    {
      "doubleSided": false,
      "emissiveFactor": [
        0,
        0,
        0
      ],
      "name": "black",
      "pbrMetallicRoughness": {
        "baseColorFactor": [
          0,
          0,
          0,
          1
        ],
        "metallicFactor": 0,
        "roughnessFactor": 0.5
      }
    },
    {
      "doubleSided": false,
      "emissiveFactor": [
        0,
        0,
        0
      ],
      "name": "pale_grey",
      "pbrMetallicRoughness": {
        "baseColorFactor": [
          0.84120899999999998,
          0.81692699999999996,
          0.77907599999999999,
          1
        ],
        "metallicFactor": 0,
        "roughnessFactor": 0.5
      }
    },
    {
      "doubleSided": false,
      "emissiveFactor": [
        0,
        0,
        0
      ],
      "name": "mid_grey",
      "pbrMetallicRoughness": {
        "baseColorFactor": [
          0.60382100000000005,
          0.60181899999999999,
          0.57174000000000003,
          1
        ],
        "metallicFactor": 0,
        "roughnessFactor": 0.5
      }
    },
    {
      "doubleSided": false,
      "emissiveFactor": [
        0,
        0,
        0
      ],
      "name": "buttermilk",
      "pbrMetallicRoughness": {
        "baseColorFactor": [
          0.80000000000000004,
          0.574403,
          0.23782200000000001,
          1
        ],
        "metallicFactor": 0,
        "roughnessFactor": 0.34927591460000001
      }
    }
  ],
  "meshes": [
    {
      "primitives": [
        {
          "attributes": {
            "NORMAL": 1,
            "POSITION": 0,
            "TANGENT": 2
          },
          "indices": 3,
          "material": 0,
          "mode": 4
        }
      ]
    },
    {
      "primitives": [
        {
          "attributes": {
            "NORMAL": 5,
            "POSITION": 4,
            "TANGENT": 6
          },
          "indices": 7,
          "material": 1,
          "mode": 4
        }
      ]
    },
    {
      "primitives": [
        {
          "attributes": {
            "NORMAL": 9,
            "POSITION": 8,
            "TANGENT": 10
          },
          "indices": 11,
          "material": 2,
          "mode": 4
        }
      ]
    },
    {
      "primitives": [
        {
          "attributes": {
            "NORMAL": 13,
            "POSITION": 12,
            "TANGENT": 14
          },
          "indices": 15,
          "material": 3,
          "mode": 4
        }
      ]
    },
    {
      "primitives": [
        {
          "attributes": {
            "NORMAL": 17,
            "POSITION": 16,
            "TANGENT": 18
          },
          "indices": 19,
          "material": 4,
          "mode": 4
        }
      ]
    },
    {
      "primitives": [
        {
          "attributes": {
            "NORMAL": 21,
            "POSITION": 20,
            "TANGENT": 22
          },
          "indices": 23,
          "material": 5,
          "mode": 4
        }
      ]
    },
    {
      "primitives": [
        {
          "attributes": {
            "NORMAL": 25,
            "POSITION": 24,
            "TANGENT": 26
          },
          "indices": 27,
          "material": 6,
          "mode": 4
        }
      ]
    }
  ],
  "nodes": [
    {
      "children": [
        1
      ],
      "name": "RootNode (gltf orientation matrix)",
      "rotation": [
        -0.70710678118654746,
        -0,
        -0,
        0.70710678118654757
      ]
    },
    {
      "children": [
        2
      ],
      "name": "RootNode (model correction matrix)"
    },
    {
      "children": [
        3
      ],
      "name": "root"
    },
    {
      "children": [
        4
      ],
      "matrix": [
        1,
        0,
        0,
        0,
        0,
        2.2204460492503131e-16,
        1,
        0,
        0,
        -1,
        2.2204460492503131e-16,
        0,
        0,
        0,
        0,
        1
      ],
      "name": "Correction matrix"
    },
    {
      "children": [
        5
      ],
      "name": "GLTF_SceneRootNode"
    },
    {
      "children": [
        6
      ],
      "matrix": [
        -1,
        0,
        -8.7422776573475858e-08,
        0,
        0,
        1,
        0,
        0,
        8.7422776573475858e-08,
        0,
        -1,
        0,
        0,
        0,
        0,
        1
      ],
      "name": "UnityGlTF_correctionMatrix_0"
    },
    {
      "children": [
        7,
        8,
        9,
        10,
        11,
        12,
        13
      ],
      "matrix": [
        1,
        0,
        0,
        0,
        0,
        -0.047445781528949738,
        0.99887388944625854,
        0,
        0,
        -0.99887388944625854,
        -0.047445781528949738,
        0,
        0,
        0.41999998688697815,
        0,
        1
      ],
      "name": "node_chicken_-4772_1"
    },
    {
      "mesh": 0,
      "name": ""
    },
    {
      "mesh": 1,
      "name": ""
    },
    {
      "mesh": 2,
      "name": ""
    },
    {
      "mesh": 3,
      "name": ""
    },
    {
      "mesh": 4,
      "name": ""
    },
    {
      "mesh": 5,
      "name": ""
    },
    {
      "mesh": 6,
      "name": ""
    }
  ],
  "scene": 0,
  "scenes": [
    {
      "name": "OSG_Scene",
      "nodes": [
        0
      ]
    }
  ]
}

