{
  "accessors": [
    {
      "bufferView": 2,
      "componentType": 5126,
      "count": 19338,
      "max": [
        3.9949979782104492,
        2.1173877716064453,
        2.9792351722717285
      ],
      "min": [
        -3.7366576194763184,
        -1.4551064968109131,
        -2.8251101970672607
      ],
      "type": "VEC3"
    },
    {
      "bufferView": 2,
      "byteOffset": 232056,
      "componentType": 5126,
      "count": 19338,
      "max": [
        1,
        1,
        1
      ],
      "min": [
        -1,
        -1,
        -1
      ],
      "type": "VEC3"
    },
    {
      "bufferView": 3,
      "componentType": 5126,
      "count": 19338,
      "max": [
        1,
        0.99999833106994629,
        1,
        1
      ],
      "min": [
        -1,
        -0.99985253810882568,
        -1,
        -1
      ],
      "type": "VEC4"
    },
    {
      "bufferView": 1,
      "componentType": 5126,
      "count": 19338,
      "max": [
        0.99608069658279419,
        1
      ],
      "min": [
        0,
        0
      ],
      "type": "VEC2"
    },
    {
      "bufferView": 0,
      "componentType": 5125,
      "count": 90312,
      "max": [
        19337
      ],
      "min": [
        0
      ],
      "type": "SCALAR"
    },
    {
      "bufferView": 2,
      "byteOffset": 464112,
      "componentType": 5126,
      "count": 6185,
      "max": [
        4.0262627601623535,
        2.2094683647155762,
        3.0447995662689209
      ],
      "min": [
        -3.5798048973083496,
        -1.9881014823913574,
        -2.8595330715179443
      ],
      "type": "VEC3"
    },
    {
      "bufferView": 2,
      "byteOffset": 538332,
      "componentType": 5126,
      "count": 6185,
      "max": [
        1,
        1,
        1
      ],
      "min": [
        -1,
        -1,
        -1
      ],
      "type": "VEC3"
    },
    {
      "bufferView": 3,
      "byteOffset": 309408,
      "componentType": 5126,
      "count": 6185,
      "max": [
        0.99999570846557617,
        1,
        1,
        1
      ],
      "min": [
        -0.99999570846557617,
        -1,
        -1,
        -1
      ],
      "type": "VEC4"
    },
    {
      "bufferView": 1,
      "byteOffset": 154704,
      "componentType": 5126,
      "count": 6185,
      "max": [
        0.98288178443908691,
        1
      ],
      "min": [
        5.5511151231257827e-17,
        0
      ],
      "type": "VEC2"
    },
    {
      "bufferView": 0,
      "byteOffset": 361248,
      "componentType": 5125,
      "count": 24132,
      "max": [
        6184
      ],
      "min": [
        0
      ],
      "type": "SCALAR"
    },
    {
      "bufferView": 2,
      "byteOffset": 612552,
      "componentType": 5126,
      "count": 4523,
      "max": [
        3.5313882827758789,
        3.3700509071350098,
        2.0942468643188477
      ],
      "min": [
        -8.6026620864868164,
        0.3797372579574585,
        -1.97660231590271
      ],
      "type": "VEC3"
    },
    {
      "bufferView": 2,
      "byteOffset": 666828,
      "componentType": 5126,
      "count": 4523,
      "max": [
        1,
        1,
        1
      ],
      "min": [
        -1,
        -1,
        -1
      ],
      "type": "VEC3"
    },
    {
      "bufferView": 3,
      "byteOffset": 408368,
      "componentType": 5126,
      "count": 4523,
      "max": [
        1,
        1,
        1,
        1
      ],
      "min": [
        -1,
        -1,
        -0.99999994039535522,
        1
      ],
      "type": "VEC4"
    },
    {
      "bufferView": 1,
      "byteOffset": 204184,
      "componentType": 5126,
      "count": 4523,
      "max": [
        0.97374176979064941,
        1
      ],
      "min": [
        0,
        0
      ],
      "type": "VEC2"
    },
    {
      "bufferView": 0,
      "byteOffset": 457776,
      "componentType": 5125,
      "count": 22539,
      "max": [
        4522
      ],
      "min": [
        0
      ],
      "type": "SCALAR"
    },
    {
      "bufferView": 2,
      "byteOffset": 721104,
      "componentType": 5126,
      "count": 4,
      "max": [
        15.63044261932373,
        -1.9890420436859131,
        15.63044261932373
      ],
      "min": [
        -15.63044261932373,
        -1.9890420436859131,
        -15.63044261932373
      ],
      "type": "VEC3"
    },
    {
      "bufferView": 2,
      "byteOffset": 721152,
      "componentType": 5126,
      "count": 4,
      "max": [
        0,
        1,
        0
      ],
      "min": [
        0,
        1,
        0
      ],
      "type": "VEC3"
    },
    {
      "bufferView": 3,
      "byteOffset": 480736,
      "componentType": 5126,
      "count": 4,
      "max": [
        -3.981315967394039e-05,
        0,
        -1,
        1
      ],
      "min": [
        -3.9843667764216661e-05,
        0,
        -1,
        1
      ],
      "type": "VEC4"
    },
    {
      "bufferView": 1,
      "byteOffset": 240368,
      "componentType": 5126,
      "count": 4,
      "max": [
        1,
        1
      ],
      "min": [
        0,
        0
      ],
      "type": "VEC2"
    },
    {
      "bufferView": 0,
      "byteOffset": 547932,
      "componentType": 5125,
      "count": 6,
      "max": [
        3
      ],
      "min": [
        0
      ],
      "type": "SCALAR"
    }
  ],
  "asset": {
    "extras": {
      "author": "Kingy (https://sketchfab.com/kingy)",
      "license": "CC-BY-4.0 (http://creativecommons.org/licenses/by/4.0/)",
      "source": "https://sketchfab.com/3d-models/naval-cannon-18th-century-english-style-d93798b2ee5d443fbc37ea9d46c38b23",
      "title": "Naval Cannon - 18th Century English Style"
    },
    "generator": "Sketchfab-5.68.0",
    "version": "2.0"
  },
  "bufferViews": [
    {
      "buffer": 0,
      "byteLength": 547956,
      "byteOffset": 0,
      "name": "floatBufferViews",
      "target": 34963
    },
    {
      "buffer": 0,
      "byteLength": 240400,
      "byteOffset": 547956,
      "byteStride": 8,
      "name": "floatBufferViews",
      "target": 34962
    },
    {
      "buffer": 0,
      "byteLength": 721200,
      "byteOffset": 788356,
      "byteStride": 12,
      "name": "floatBufferViews",
      "target": 34962
    },
    {
      "buffer": 0,
      "byteLength": 480800,
      "byteOffset": 1509556,
      "byteStride": 16,
      "name": "floatBufferViews",
      "target": 34962
    }
  ],
  "buffers": [
    {
      "byteLength": 1990356,
      "uri": "scene.bin"
    }
  ],
  "images": [
    {
      "uri": "textures/knobs_m_baseColor.png"
    },
    {
      "uri": "textures/knobs_m_metallicRoughness.png"
    },
    {
      "uri": "textures/knobs_m_normal.png"
    },
    {
      "uri": "textures/body_m_baseColor.png"
    },
    {
      "uri": "textures/body_m_metallicRoughness.png"
    },
    {
      "uri": "textures/body_m_normal.png"
    },
    {
      "uri": "textures/cannon_m_baseColor.png"
    },
    {
      "uri": "textures/cannon_m_metallicRoughness.png"
    },
    {
      "uri": "textures/cannon_m_normal.png"
    },
    {
      "uri": "textures/lambert1_baseColor.png"
    },
    {
      "uri": "textures/lambert1_metallicRoughness.png"
    },
    {
      "uri": "textures/lambert1_normal.png"
    }
  ],
  "materials": [
    {
      "doubleSided": true,
      "emissiveFactor": [
        0,
        0,
        0
      ],
      "name": "knobs_m",
      "normalTexture": {
        "index": 2,
        "scale": 1,
        "texCoord": 0
      },
      "occlusionTexture": {
        "index": 1,
        "strength": 1,
        "texCoord": 0
      },
      "pbrMetallicRoughness": {
        "baseColorFactor": [
          1,
          1,
          1,
          1
        ],
        "baseColorTexture": {
          "index": 0,
          "texCoord": 0
        },
        "metallicFactor": 1,
        "metallicRoughnessTexture": {
          "index": 1,
          "texCoord": 0
        },
        "roughnessFactor": 1
      }
    },
    {
      "doubleSided": true,
      "emissiveFactor": [
        0,
        0,
        0
      ],
      "name": "body_m",
      "normalTexture": {
        "index": 5,
        "scale": 1,
        "texCoord": 0
      },
      "occlusionTexture": {
        "index": 4,
        "strength": 1,
        "texCoord": 0
      },
      "pbrMetallicRoughness": {
        "baseColorFactor": [
          1,
          1,
          1,
          1
        ],
        "baseColorTexture": {
          "index": 3,
          "texCoord": 0
        },
        "metallicFactor": 1,
        "metallicRoughnessTexture": {
          "index": 4,
          "texCoord": 0
        },
        "roughnessFactor": 1
      }
    },
    {
      "doubleSided": true,
      "emissiveFactor": [
        0,
        0,
        0
      ],
      "name": "cannon_m",
      "normalTexture": {
        "index": 8,
        "scale": 1,
        "texCoord": 0
      },
      "occlusionTexture": {
        "index": 7,
        "strength": 1,
        "texCoord": 0
      },
      "pbrMetallicRoughness": {
        "baseColorFactor": [
          1,
          1,
          1,
          1
        ],
        "baseColorTexture": {
          "index": 6,
          "texCoord": 0
        },
        "metallicFactor": 1,
        "metallicRoughnessTexture": {
          "index": 7,
          "texCoord": 0
        },
        "roughnessFactor": 1
      }
    },
    {
      "alphaMode": "BLEND",
      "doubleSided": false,
      "emissiveFactor": [
        0,
        0,
        0
      ],
      "name": "lambert1",
      "normalTexture": {
        "index": 11,
        "scale": 0.52610518289999997,
        "texCoord": 0
      },
      "pbrMetallicRoughness": {
        "baseColorFactor": [
          1,
          1,
          1,
          1
        ],
        "baseColorTexture": {
          "index": 9,
          "texCoord": 0
        },
        "metallicFactor": 1,
        "metallicRoughnessTexture": {
          "index": 10,
          "texCoord": 0
        },
        "roughnessFactor": 1
      }
    }
  ],
  "meshes": [
    {
      "name": "chain3_low2_knobs_m_0",
      "primitives": [
        {
          "attributes": {
            "NORMAL": 1,
            "POSITION": 0,
            "TANGENT": 2,
            "TEXCOORD_0": 3
          },
          "indices": 4,
          "material": 0,
          "mode": 4
        }
      ]
    },
    {
      "name": "chain3_low2_body_m_0",
      "primitives": [
        {
          "attributes": {
            "NORMAL": 6,
            "POSITION": 5,
            "TANGENT": 7,
            "TEXCOORD_0": 8
          },
          "indices": 9,
          "material": 1,
          "mode": 4
        }
      ]
    },
    {
      "name": "chain3_low2_cannon_m_0",
      "primitives": [
        {
          "attributes": {
            "NORMAL": 11,
            "POSITION": 10,
            "TANGENT": 12,
            "TEXCOORD_0": 13
          },
          "indices": 14,
          "material": 2,
          "mode": 4
        }
      ]
    },
    {
      "name": "chain3_low2_lambert1_0",
      "primitives": [
        {
          "attributes": {
            "NORMAL": 16,
            "POSITION": 15,
            "TANGENT": 17,
            "TEXCOORD_0": 18
          },
          "indices": 19,
          "material": 3,
          "mode": 4
        }
      ]
    }
  ],
  "nodes": [
    {
      "children": [
        1
      ],
      "name": "RootNode (gltf orientation matrix)",
      "rotation": [
        -0.70710678118654746,
        -0,
        -0,
        0.70710678118654757
      ]
    },
    {
      "children": [
        2
      ],
      "matrix": [
        0.99999409914016724,
        0.003435519291087985,
        0,
        0,
        -0.003435519291087985,
        0.99999409914016724,
        0,
        0,
        0,
        0,
        1,
        0,
        -0.00032127150916494429,
        0.0017701844917610288,
        0,
        1
      ],
      "name": "RootNode (model correction matrix)"
    },
    {
      "children": [
        3
      ],
      "matrix": [
        1,
        0,
        0,
        0,
        0,
        0,
        1,
        0,
        0,
        -1,
        0,
        0,
        0,
        0,
        0,
        1
      ],
      "name": "923039697f334d35a48dd00cf1631ec8.fbx"
    },
    {
      "children": [
        4
      ],
      "name": "RootNode"
    },
    {
      "children": [
        5,
        6,
        7,
        8
      ],
      "name": "chain3_low2"
    },
    {
      "mesh": 0,
      "name": "chain3_low2_knobs_m_0"
    },
    {
      "mesh": 1,
      "name": "chain3_low2_body_m_0"
    },
    {
      "mesh": 2,
      "name": "chain3_low2_cannon_m_0"
    },
    {
      "mesh": 3,
      "name": "chain3_low2_lambert1_0"
    }
  ],
  "samplers": [
    {
      "magFilter": 9729,
      "minFilter": 9987,
      "wrapS": 10497,
      "wrapT": 10497
    }
  ],
  "scene": 0,
  "scenes": [
    {
      "name": "OSG_Scene",
      "nodes": [
        0
      ]
    }
  ],
  "textures": [
    {
      "sampler": 0,
      "source": 0
    },
    {
      "sampler": 0,
      "source": 1
    },
    {
      "sampler": 0,
      "source": 2
    },
    {
      "sampler": 0,
      "source": 3
    },
    {
      "sampler": 0,
      "source": 4
    },
    {
      "sampler": 0,
      "source": 5
    },
    {
      "sampler": 0,
      "source": 6
    },
    {
      "sampler": 0,
      "source": 7
    },
    {
      "sampler": 0,
      "source": 8
    },
    {
      "sampler": 0,
      "source": 9
    },
    {
      "sampler": 0,
      "source": 10
    },
    {
      "sampler": 0,
      "source": 11
    }
  ]
}

