{
  "accessors": [
    {
      "bufferView": 2,
      "componentType": 5126,
      "count": 9523,
      "max": [
        2.5216319561004639,
        -0.45687198638916016,
        3.1726438999176025
      ],
      "min": [
        -1.9649670124053955,
        -5.6294631958007812,
        -2.6199769973754883
      ],
      "type": "VEC3"
    },
    {
      "bufferView": 2,
      "byteOffset": 114276,
      "componentType": 5126,
      "count": 9523,
      "max": [
        1,
        1,
        1
      ],
      "min": [
        -1,
        -1,
        -1
      ],
      "type": "VEC3"
    },
    {
      "bufferView": 3,
      "componentType": 5126,
      "count": 9523,
      "max": [
        1,
        0.99999940395355225,
        1,
        1
      ],
      "min": [
        -1,
        -0.99999672174453735,
        -1,
        -1
      ],
      "type": "VEC4"
    },
    {
      "bufferView": 1,
      "componentType": 5126,
      "count": 9523,
      "max": [
        0.99647998809814453,
        0.99711900949478149
      ],
      "min": [
        0.0001049999991664663,
        0.0029740000609308481
      ],
      "type": "VEC2"
    },
    {
      "bufferView": 0,
      "componentType": 5125,
      "count": 42954,
      "max": [
        9522
      ],
      "min": [
        0
      ],
      "type": "SCALAR"
    },
    {
      "bufferView": 2,
      "byteOffset": 228552,
      "componentType": 5126,
      "count": 9924,
      "max": [
        3.5682981014251709,
        -0.058981001377105713,
        4.3014998435974121
      ],
      "min": [
        -3.322706937789917,
        -5.6294631958007812,
        -4.6356148719787598
      ],
      "type": "VEC3"
    },
    {
      "bufferView": 2,
      "byteOffset": 347640,
      "componentType": 5126,
      "count": 9924,
      "max": [
        1,
        1,
        1
      ],
      "min": [
        -1,
        -0.99999314546585083,
        -1
      ],
      "type": "VEC3"
    },
    {
      "bufferView": 3,
      "byteOffset": 152368,
      "componentType": 5126,
      "count": 9924,
      "max": [
        1,
        1,
        1,
        1
      ],
      "min": [
        -1,
        -0.99998623132705688,
        -1,
        -1
      ],
      "type": "VEC4"
    },
    {
      "bufferView": 1,
      "byteOffset": 76184,
      "componentType": 5126,
      "count": 9924,
      "max": [
        0.99594300985336304,
        0.99639499187469482
      ],
      "min": [
        0.0010939999483525753,
        0.0010290000354871154
      ],
      "type": "VEC2"
    },
    {
      "bufferView": 0,
      "byteOffset": 171816,
      "componentType": 5125,
      "count": 46791,
      "max": [
        9923
      ],
      "min": [
        0
      ],
      "type": "SCALAR"
    },
    {
      "bufferView": 2,
      "byteOffset": 466728,
      "componentType": 5126,
      "count": 9989,
      "max": [
        2.1752049922943115,
        -0.45628398656845093,
        3.1380100250244141
      ],
      "min": [
        -2.0871438980102539,
        -6.9003667831420898,
        -3.5965340137481689
      ],
      "type": "VEC3"
    },
    {
      "bufferView": 2,
      "byteOffset": 586596,
      "componentType": 5126,
      "count": 9989,
      "max": [
        1,
        1,
        1
      ],
      "min": [
        -1,
        -1,
        -1
      ],
      "type": "VEC3"
    },
    {
      "bufferView": 3,
      "byteOffset": 311152,
      "componentType": 5126,
      "count": 9989,
      "max": [
        1,
        0.99999922513961792,
        1,
        1
      ],
      "min": [
        -1,
        -1,
        -0.99997687339782715,
        -1
      ],
      "type": "VEC4"
    },
    {
      "bufferView": 1,
      "byteOffset": 155576,
      "componentType": 5126,
      "count": 9989,
      "max": [
        0.99695301055908203,
        0.99798297882080078
      ],
      "min": [
        0.00025099999038502574,
        0.0029819998890161514
      ],
      "type": "VEC2"
    },
    {
      "bufferView": 0,
      "byteOffset": 358980,
      "componentType": 5125,
      "count": 40887,
      "max": [
        9988
      ],
      "min": [
        0
      ],
      "type": "SCALAR"
    },
    {
      "bufferView": 2,
      "byteOffset": 706464,
      "componentType": 5126,
      "count": 9887,
      "max": [
        2.5688929557800293,
        -0.57496297359466553,
        3.1589069366455078
      ],
      "min": [
        -1.9060050249099731,
        -6.7438750267028809,
        -3.465087890625
      ],
      "type": "VEC3"
    },
    {
      "bufferView": 2,
      "byteOffset": 825108,
      "componentType": 5126,
      "count": 9887,
      "max": [
        1,
        1,
        1
      ],
      "min": [
        -1,
        -1,
        -1
      ],
      "type": "VEC3"
    },
    {
      "bufferView": 3,
      "byteOffset": 470976,
      "componentType": 5126,
      "count": 9887,
      "max": [
        1,
        1,
        1,
        1
      ],
      "min": [
        -1,
        -1,
        -1,
        -1
      ],
      "type": "VEC4"
    },
    {
      "bufferView": 1,
      "byteOffset": 235488,
      "componentType": 5126,
      "count": 9887,
      "max": [
        0.9969789981842041,
        0.99748802185058594
      ],
      "min": [
        0.0013229999458417296,
        0.0027079998981207609
      ],
      "type": "VEC2"
    },
    {
      "bufferView": 0,
      "byteOffset": 522528,
      "componentType": 5125,
      "count": 43194,
      "max": [
        9886
      ],
      "min": [
        0
      ],
      "type": "SCALAR"
    },
    {
      "bufferView": 2,
      "byteOffset": 943752,
      "componentType": 5126,
      "count": 702,
      "max": [
        2.5406138896942139,
        -0.58986902236938477,
        3.1589069366455078
      ],
      "min": [
        -1.9504749774932861,
        -5.5698871612548828,
        -1.6027560234069824
      ],
      "type": "VEC3"
    },
    {
      "bufferView": 2,
      "byteOffset": 952176,
      "componentType": 5126,
      "count": 702,
      "max": [
        1,
        1,
        1
      ],
      "min": [
        -1,
        -1,
        -1
      ],
      "type": "VEC3"
    },
    {
      "bufferView": 3,
      "byteOffset": 629168,
      "componentType": 5126,
      "count": 702,
      "max": [
        0.99866735935211182,
        0.99939084053039551,
        1,
        1
      ],
      "min": [
        -0.99866735935211182,
        -0.99926793575286865,
        -0.99998170137405396,
        1
      ],
      "type": "VEC4"
    },
    {
      "bufferView": 1,
      "byteOffset": 314584,
      "componentType": 5126,
      "count": 702,
      "max": [
        0.9965289831161499,
        0.83455401659011841
      ],
      "min": [
        0.036093000322580338,
        0.0023550000041723251
      ],
      "type": "VEC2"
    },
    {
      "bufferView": 0,
      "byteOffset": 695304,
      "componentType": 5125,
      "count": 2916,
      "max": [
        701
      ],
      "min": [
        0
      ],
      "type": "SCALAR"
    }
  ],
  "asset": {
    "extras": {
      "author": "dmitrynerovny (https://sketchfab.com/dmitrynerovny)",
      "license": "CC-BY-NC-4.0 (http://creativecommons.org/licenses/by-nc/4.0/)",
      "source": "https://sketchfab.com/3d-models/fantasy-house-c7f82b48deee40a5b65f418f756fefb7",
      "title": "Fantasy House"
    },
    "generator": "Sketchfab-7.17.0",
    "version": "2.0"
  },
  "bufferViews": [
    {
      "buffer": 0,
      "byteLength": 706968,
      "byteOffset": 0,
      "name": "floatBufferViews",
      "target": 34963
    },
    {
      "buffer": 0,
      "byteLength": 320200,
      "byteOffset": 706968,
      "byteStride": 8,
      "name": "floatBufferViews",
      "target": 34962
    },
    {
      "buffer": 0,
      "byteLength": 960600,
      "byteOffset": 1027168,
      "byteStride": 12,
      "name": "floatBufferViews",
      "target": 34962
    },
    {
      "buffer": 0,
      "byteLength": 640400,
      "byteOffset": 1987768,
      "byteStride": 16,
      "name": "floatBufferViews",
      "target": 34962
    }
  ],
  "buffers": [
    {
      "byteLength": 2628168,
      "uri": "scene.bin"
    }
  ],
  "extensionsRequired": [
    "KHR_materials_pbrSpecularGlossiness"
  ],
  "extensionsUsed": [
    "KHR_materials_pbrSpecularGlossiness"
  ],
  "images": [
    {
      "uri": "textures/initialShadingGroup_diffuse.png"
    },
    {
      "uri": "textures/initialShadingGroup_specularGlossiness.png"
    },
    {
      "uri": "textures/initialShadingGroup_emissive.png"
    },
    {
      "uri": "textures/initialShadingGroup_normal.png"
    }
  ],
  "materials": [
    {
      "doubleSided": true,
      "emissiveFactor": [
        1,
        1,
        1
      ],
      "emissiveTexture": {
        "index": 2,
        "texCoord": 0
      },
      "extensions": {
        "KHR_materials_pbrSpecularGlossiness": {
          "diffuseFactor": [
            1,
            1,
            1,
            1
          ],
          "diffuseTexture": {
            "index": 0,
            "texCoord": 0
          },
          "glossinessFactor": 0.57488567073170727,
          "specularFactor": [
            0.6480564024390244,
            0.6480564024390244,
            0.6480564024390244
          ],
          "specularGlossinessTexture": {
            "index": 1,
            "texCoord": 0
          }
        }
      },
      "name": "initialShadingGroup",
      "normalTexture": {
        "index": 3,
        "scale": 1,
        "texCoord": 0
      }
    }
  ],
  "meshes": [
    {
      "primitives": [
        {
          "attributes": {
            "NORMAL": 1,
            "POSITION": 0,
            "TANGENT": 2,
            "TEXCOORD_0": 3
          },
          "indices": 4,
          "material": 0,
          "mode": 4
        }
      ]
    },
    {
      "primitives": [
        {
          "attributes": {
            "NORMAL": 6,
            "POSITION": 5,
            "TANGENT": 7,
            "TEXCOORD_0": 8
          },
          "indices": 9,
          "material": 0,
          "mode": 4
        }
      ]
    },
    {
      "primitives": [
        {
          "attributes": {
            "NORMAL": 11,
            "POSITION": 10,
            "TANGENT": 12,
            "TEXCOORD_0": 13
          },
          "indices": 14,
          "material": 0,
          "mode": 4
        }
      ]
    },
    {
      "primitives": [
        {
          "attributes": {
            "NORMAL": 16,
            "POSITION": 15,
            "TANGENT": 17,
            "TEXCOORD_0": 18
          },
          "indices": 19,
          "material": 0,
          "mode": 4
        }
      ]
    },
    {
      "primitives": [
        {
          "attributes": {
            "NORMAL": 21,
            "POSITION": 20,
            "TANGENT": 22,
            "TEXCOORD_0": 23
          },
          "indices": 24,
          "material": 0,
          "mode": 4
        }
      ]
    }
  ],
  "nodes": [
    {
      "children": [
        1
      ],
      "name": "RootNode (gltf orientation matrix)",
      "rotation": [
        -0.70710678118654746,
        -0,
        -0,
        0.70710678118654757
      ]
    },
    {
      "children": [
        2
      ],
      "matrix": [
        1,
        0,
        0,
        0,
        0,
        2.2204460492503131e-16,
        -1,
        0,
        0,
        1,
        2.2204460492503131e-16,
        0,
        0,
        -3.3125319480895996,
        -3.6467347145080566,
        1
      ],
      "name": "RootNode (model correction matrix)"
    },
    {
      "children": [
        3,
        4,
        5,
        6,
        7
      ],
      "name": "merged_lp_v2.obj.cleaner.materialmerger.gles"
    },
    {
      "mesh": 0,
      "name": ""
    },
    {
      "mesh": 1,
      "name": ""
    },
    {
      "mesh": 2,
      "name": ""
    },
    {
      "mesh": 3,
      "name": ""
    },
    {
      "mesh": 4,
      "name": ""
    }
  ],
  "samplers": [
    {
      "magFilter": 9729,
      "minFilter": 9987,
      "wrapS": 10497,
      "wrapT": 10497
    }
  ],
  "scene": 0,
  "scenes": [
    {
      "name": "OSG_Scene",
      "nodes": [
        0
      ]
    }
  ],
  "textures": [
    {
      "sampler": 0,
      "source": 0
    },
    {
      "sampler": 0,
      "source": 1
    },
    {
      "sampler": 0,
      "source": 2
    },
    {
      "sampler": 0,
      "source": 3
    }
  ]
}

