{
  "accessors": [
    {
      "bufferView": 2,
      "componentType": 5126,
      "count": 533,
      "max": [
        0.095976591110229492,
        0.074345529079437256,
        0.26088005304336548
      ],
      "min": [
        -0.087838172912597656,
        -0.082869194447994232,
        -0.0026897869538515806
      ],
      "type": "VEC3"
    },
    {
      "bufferView": 2,
      "byteOffset": 6396,
      "componentType": 5126,
      "count": 533,
      "max": [
        0.99951159954071045,
        0.99267470836639404,
        0.99032741785049438
      ],
      "min": [
        -0.99412035942077637,
        -0.99986076354980469,
        -1
      ],
      "type": "VEC3"
    },
    {
      "bufferView": 3,
      "componentType": 5126,
      "count": 533,
      "max": [
        1,
        1,
        0.97390449047088623,
        1
      ],
      "min": [
        -0.95069760084152222,
        -0.94340401887893677,
        -0.72825896739959717,
        -1
      ],
      "type": "VEC4"
    },
    {
      "bufferView": 1,
      "componentType": 5126,
      "count": 533,
      "max": [
        0.98265117406845093,
        0.65427297353744507
      ],
      "min": [
        0.30952346324920654,
        0.013165652751922607
      ],
      "type": "VEC2"
    },
    {
      "bufferView": 0,
      "componentType": 5125,
      "count": 1278,
      "max": [
        532
      ],
      "min": [
        0
      ],
      "type": "SCALAR"
    }
  ],
  "asset": {
    "extras": {
      "author": "Kitkat (https://sketchfab.com/chushoga)",
      "license": "CC-BY-NC-4.0 (http://creativecommons.org/licenses/by-nc/4.0/)",
      "source": "https://sketchfab.com/3d-models/flower03-af9d960dfa9e4002a9928393612f4f21",
      "title": "Flower03"
    },
    "generator": "Sketchfab-6.36.0",
    "version": "2.0"
  },
  "bufferViews": [
    {
      "buffer": 0,
      "byteLength": 5112,
      "byteOffset": 0,
      "name": "floatBufferViews",
      "target": 34963
    },
    {
      "buffer": 0,
      "byteLength": 4264,
      "byteOffset": 5112,
      "byteStride": 8,
      "name": "floatBufferViews",
      "target": 34962
    },
    {
      "buffer": 0,
      "byteLength": 12792,
      "byteOffset": 9376,
      "byteStride": 12,
      "name": "floatBufferViews",
      "target": 34962
    },
    {
      "buffer": 0,
      "byteLength": 8528,
      "byteOffset": 22168,
      "byteStride": 16,
      "name": "floatBufferViews",
      "target": 34962
    }
  ],
  "buffers": [
    {
      "byteLength": 30696,
      "uri": "scene.bin"
    }
  ],
  "images": [
    {
      "uri": "textures/foilage01_baseColor.png"
    }
  ],
  "materials": [
    {
      "alphaMode": "BLEND",
      "doubleSided": true,
      "emissiveFactor": [
        0,
        0,
        0
      ],
      "name": "foilage01",
      "pbrMetallicRoughness": {
        "baseColorFactor": [
          1,
          1,
          1,
          1
        ],
        "baseColorTexture": {
          "index": 0,
          "texCoord": 0
        },
        "metallicFactor": 0,
        "roughnessFactor": 0.95770514946237739
      }
    }
  ],
  "meshes": [
    {
      "name": "Flower03_foilage01_0",
      "primitives": [
        {
          "attributes": {
            "NORMAL": 1,
            "POSITION": 0,
            "TANGENT": 2,
            "TEXCOORD_0": 3
          },
          "indices": 4,
          "material": 0,
          "mode": 4
        }
      ]
    }
  ],
  "nodes": [
    {
      "children": [
        1
      ],
      "name": "RootNode (gltf orientation matrix)",
      "rotation": [
        -0.70710678118654746,
        -0,
        -0,
        0.70710678118654757
      ]
    },
    {
      "children": [
        2
      ],
      "name": "RootNode (model correction matrix)"
    },
    {
      "children": [
        3
      ],
      "matrix": [
        1,
        0,
        0,
        0,
        0,
        0,
        1,
        0,
        0,
        -1,
        0,
        0,
        0,
        0,
        0,
        1
      ],
      "name": "c2d1939d696d4f458f06f5c22fc49834.fbx"
    },
    {
      "children": [
        4
      ],
      "name": "RootNode"
    },
    {
      "children": [
        5
      ],
      "matrix": [
        100,
        0,
        0,
        0,
        0,
        -1.6292067939183141e-05,
        -99.999999999998678,
        0,
        0,
        99.999999999998678,
        -1.6292067939183141e-05,
        0,
        0,
        0,
        0,
        1
      ],
      "name": "Flower03"
    },
    {
      "mesh": 0,
      "name": "Flower03_foilage01_0"
    }
  ],
  "samplers": [
    {
      "magFilter": 9729,
      "minFilter": 9987,
      "wrapS": 10497,
      "wrapT": 10497
    }
  ],
  "scene": 0,
  "scenes": [
    {
      "name": "OSG_Scene",
      "nodes": [
        0
      ]
    }
  ],
  "textures": [
    {
      "sampler": 0,
      "source": 0
    }
  ]
}

